<svg xmlns="http://www.w3.org/2000/svg" viewBox="0 0 1200 650" role="img" aria-labelledby="title desc">
<title id="title">Bicicleta premium VeloLab</title><desc id="desc">Ilustração minimalista de bicicleta premium em fundo claro.</desc>
<defs><linearGradient id="frame" x1="0" x2="1"><stop stop-color="#111"/><stop offset=".55" stop-color="#4F6F52"/><stop offset="1" stop-color="#C76F32"/></linearGradient><filter id="shadow" x="-10%" y="-10%" width="120%" height="120%"><feDropShadow dx="0" dy="28" stdDeviation="22" flood-color="#111" flood-opacity=".18"/></filter></defs>
<rect width="1200" height="650" rx="42" fill="#F5F2EA"/><path d="M60 532c207-83 331-104 528-65 214 42 379-2 552-98" fill="none" stroke="#D8C3A5" stroke-width="3" stroke-dasharray="14 18" opacity=".75"/><g filter="url(#shadow)" fill="none" stroke-linecap="round" stroke-linejoin="round"><circle cx="320" cy="430" r="118" stroke="#111" stroke-width="19"/><circle cx="886" cy="430" r="118" stroke="#111" stroke-width="19"/><circle cx="320" cy="430" r="92" stroke="#8A6A43" stroke-width="4" opacity=".45"/><circle cx="886" cy="430" r="92" stroke="#8A6A43" stroke-width="4" opacity=".45"/><path d="M320 430 487 252h198L538 430H320l129-214m89 214 150-178 198 178M685 252l78-95h91m-531 0h158m0 0 56 273m-56-273-58-78h-98" stroke="url(#frame)" stroke-width="26"/><path d="M804 157c20-31 44-46 83-45" stroke="#111" stroke-width="18"/><path d="M324 79h106" stroke="#111" stroke-width="19"/><path d="M292 430h60m506 0h60" stroke="#2B2B2B" stroke-width="10"/><path d="M556 430h-70" stroke="#C76F32" stroke-width="12"/><circle cx="538" cy="430" r="22" stroke="#111" stroke-width="12" fill="#F5F2EA"/></g></svg>
